<?xml version="1.0" standalone="no"?><!DOCTYPE svg PUBLIC "-//W3C//DTD SVG 1.1//EN" "http://www.w3.org/Graphics/SVG/1.1/DTD/svg11.dtd"><svg t="1556517946136" class="icon" style="" viewBox="0 0 1024 1024" version="1.1" xmlns="http://www.w3.org/2000/svg" p-id="1975" xmlns:xlink="http://www.w3.org/1999/xlink" width="200" height="200"><defs><style type="text/css"></style></defs><path d="M852.8 438.4c0-52.8-43.2-97.6-97.6-97.6-52.8 0-97.6 43.2-97.6 97.6s43.2 97.6 97.6 97.6c52.8 0 97.6-43.2 97.6-97.6z m-147.2 0c0-27.2 22.4-48 48-48s48 22.4 48 48c0 27.2-22.4 48-48 48s-48-20.8-48-48zM609.6 438.4c0-52.8-43.2-97.6-97.6-97.6s-97.6 43.2-97.6 97.6 43.2 97.6 97.6 97.6 97.6-43.2 97.6-97.6z m-145.6 0c0-27.2 22.4-48 48-48s48 22.4 48 48c0 27.2-22.4 48-48 48s-48-20.8-48-48zM268.8 342.4c-52.8 0-97.6 43.2-97.6 97.6s43.2 97.6 97.6 97.6 97.6-43.2 97.6-97.6-43.2-97.6-97.6-97.6z m0 145.6c-27.2 0-48-22.4-48-48 0-27.2 22.4-48 48-48 27.2 0 48 22.4 48 48 1.6 25.6-20.8 48-48 48z" fill="#ffffff" p-id="1976"></path><path d="M731.2 51.2H147.2c-67.2 0-121.6 54.4-121.6 121.6V560c0 147.2 120 267.2 267.2 267.2 12.8 0 24-11.2 24-24s-11.2-24-24-24c-120 0-219.2-97.6-219.2-219.2V171.2c0-40 32-73.6 73.6-73.6h582.4c120 0 219.2 97.6 219.2 219.2v388.8c0 40-32 73.6-73.6 73.6H558.4l-184 152c-9.6 8-11.2 24-3.2 33.6 4.8 6.4 11.2 9.6 19.2 9.6 4.8 0 11.2-1.6 16-4.8L576 827.2h299.2c67.2 0 121.6-54.4 121.6-121.6V318.4c1.6-148.8-118.4-267.2-265.6-267.2z" fill="#ffffff" p-id="1977"></path></svg>